# xmcd
#
# Track frame offsets:
#	150
#	14642
#	25901
#	38433
#	51080
#	63917
#	78047
#	90923
#	100838
#	112372
#	125431
#
# Disc length: 1943 seconds
#
# Revision: 1
# Processed by: cddbd v1.5.2PL0 Copyright (c) Steve Scherf et al.
# Submitted via: audiograbber 1.83.01
#
DISCID=8007950b
DTITLE=Merle Haggard - Icon
DYEAR=1900
DGENRE=Country
TTITLE0=If We're Not Back In Love By Monday
TTITLE1=From Graceland To The Promised Land ( with The  Jordanaires )
TTITLE2=It's Been A Great Afternoon
TTITLE3=Rainbow Stew ( Live )
TTITLE4=I'm Always On A Mountain When I Fall
TTITLE5=Ramblin' Fever
TTITLE6=Misery And Gin
TTITLE7=The Running Kind ( Live )
TTITLE8=Red Bandana
TTITLE9=The Way I Am
TTITLE10=I Think I"ll Just Stay Here And Drink
EXTD=
EXTT0=
EXTT1=
EXTT2=
EXTT3=
EXTT4=
EXTT5=
EXTT6=
EXTT7=
EXTT8=
EXTT9=
EXTT10=
PLAYORDER=
